# xmcd
#
# Track frame offsets:
#	182
#	18125
#	34050
#	50910
#	67937
#	84975
#	105852
#	119960
#	145630
#	161650
#	172785
#	184005
#	196060
#	211845
#	236112
#	250942
#	262235
#	276855
#	288152
#	304842
#
# Disc length: 4234 seconds
#
# Revision: 1
# Processed by: cddbd v1.4PL0 Copyright (c) Steve Scherf et al.
# Submitted via: audiograbber 1.81.03
#
DISCID=17108814
DTITLE=Various Artist - Tenderness 20 Soul Ballads
DYEAR=1900
DGENRE=
TTITLE0=Otis Redding - Try A Little Tenderness
TTITLE1=Lou Rawls - You'll Never Find Another Love
TTITLE2=Gladys Knight - Best Thing That Ever Happened To Me
TTITLE3=The Moments - Love On a Two-Way Street
TTITLE4=Curtis Mayfiled - Love To Keep You in My Mind
TTITLE5=Billy Paul - Me And Mrs Jones
TTITLE6=Aaron Neville - Tell It Like It Is
TTITLE7=Peaches+Herb - Reunited
TTITLE8=The Chi-Lites - Oh Gril
TTITLE9=Jackie Wilson - To Be Loved
TTITLE10=Solomon Bruke - If You Need Me
TTITLE11=Sam Cooke - Bring It On Home To Me
TTITLE12=Harold Melvin and The Blue Notes - If you Don't Know Me By Now
TTITLE13=Marvin Gaye - Let's Get In On (live)
TTITLE14=The Dells - Love Is Blue
TTITLE15=Gene Chandler - Just Be True
TTITLE16=Sam and Dave - When Someting Is Wrong With My Baby
TTITLE17=Dinah Washington - What A Difference A Day Makes
TTITLE18=Timmy Thomas - Why Can't We Live Together
TTITLE19=Jerry Butler and Betty Everett - Let It Be Me
EXTD=
EXTT0=
EXTT1=
EXTT2=
EXTT3=
EXTT4=
EXTT5=
EXTT6=
EXTT7=
EXTT8=
EXTT9=
EXTT10=
EXTT11=
EXTT12=
EXTT13=
EXTT14=
EXTT15=
EXTT16=
EXTT17=
EXTT18=
EXTT19=
PLAYORDER=
